<svg width="1688" height="5615" viewBox="0 0 1688 5615" fill="none" xmlns="http://www.w3.org/2000/svg">
<rect width="1688" height="5615" fill="#F5F5F5"/>
<ellipse cx="208.5" cy="2907" rx="111.5" ry="112" fill="white" stroke="#CCCCCC" stroke-width="4" stroke-miterlimit="0" stroke-linecap="round"/>
<path fill-rule="evenodd" clip-rule="evenodd" d="M288.573 2887H173V2981.35H288.573V2887ZM280.847 2942.1L247.226 2908.28L218.225 2937.46L203.755 2922.9L180.726 2946.07V2971.09H280.847V2942.1ZM227.997 2910.27C227.997 2915.4 223.861 2919.56 218.76 2919.56C213.659 2919.56 209.524 2915.4 209.524 2910.27C209.524 2905.13 213.659 2900.97 218.76 2900.97C223.861 2900.97 227.997 2905.13 227.997 2910.27Z" fill="#EEEEEE"/>
<rect x="128" y="2" width="384" height="159" rx="6" fill="white" stroke="#CCCCCC" stroke-width="4" stroke-miterlimit="0" stroke-linecap="round"/>
<path d="M267.194 58.4545V105H260.399V58.4545H267.194ZM289.633 105.705C286.36 105.705 283.504 104.955 281.065 103.455C278.625 101.955 276.731 99.8561 275.383 97.1591C274.034 94.4621 273.36 91.3106 273.36 87.7045C273.36 84.0833 274.034 80.9167 275.383 78.2045C276.731 75.4924 278.625 73.3864 281.065 71.8864C283.504 70.3864 286.36 69.6364 289.633 69.6364C292.906 69.6364 295.762 70.3864 298.201 71.8864C300.641 73.3864 302.534 75.4924 303.883 78.2045C305.231 80.9167 305.906 84.0833 305.906 87.7045C305.906 91.3106 305.231 94.4621 303.883 97.1591C302.534 99.8561 300.641 101.955 298.201 103.455C295.762 104.955 292.906 105.705 289.633 105.705ZM289.656 100C291.777 100 293.534 99.4394 294.928 98.3182C296.322 97.197 297.353 95.7045 298.019 93.8409C298.701 91.9773 299.042 89.9242 299.042 87.6818C299.042 85.4545 298.701 83.4091 298.019 81.5455C297.353 79.6667 296.322 78.1591 294.928 77.0227C293.534 75.8864 291.777 75.3182 289.656 75.3182C287.519 75.3182 285.747 75.8864 284.338 77.0227C282.944 78.1591 281.906 79.6667 281.224 81.5455C280.557 83.4091 280.224 85.4545 280.224 87.6818C280.224 89.9242 280.557 91.9773 281.224 93.8409C281.906 95.7045 282.944 97.197 284.338 98.3182C285.747 99.4394 287.519 100 289.656 100ZM326.719 118.818C323.947 118.818 321.56 118.455 319.56 117.727C317.575 117 315.954 116.038 314.697 114.841C313.439 113.644 312.5 112.333 311.878 110.909L317.719 108.5C318.128 109.167 318.674 109.871 319.356 110.614C320.053 111.371 320.992 112.015 322.174 112.545C323.371 113.076 324.909 113.341 326.787 113.341C329.363 113.341 331.492 112.712 333.174 111.455C334.856 110.212 335.697 108.227 335.697 105.5V98.6364H335.265C334.856 99.3788 334.265 100.205 333.492 101.114C332.734 102.023 331.689 102.811 330.356 103.477C329.022 104.144 327.287 104.477 325.151 104.477C322.394 104.477 319.909 103.833 317.697 102.545C315.5 101.242 313.757 99.3258 312.469 96.7955C311.197 94.25 310.56 91.1212 310.56 87.4091C310.56 83.697 311.189 80.5152 312.447 77.8636C313.719 75.2121 315.462 73.1818 317.674 71.7727C319.886 70.3485 322.394 69.6364 325.197 69.6364C327.363 69.6364 329.113 70 330.447 70.7273C331.78 71.4394 332.818 72.2727 333.56 73.2273C334.318 74.1818 334.901 75.0227 335.31 75.75H335.81V70.0909H342.469V105.773C342.469 108.773 341.772 111.235 340.378 113.159C338.984 115.083 337.098 116.508 334.719 117.432C332.356 118.356 329.689 118.818 326.719 118.818ZM326.651 98.8409C328.606 98.8409 330.257 98.3864 331.606 97.4773C332.969 96.553 334 95.2348 334.697 93.5227C335.409 91.7955 335.765 89.7273 335.765 87.3182C335.765 84.9697 335.416 82.9015 334.719 81.1136C334.022 79.3258 333 77.9318 331.651 76.9318C330.303 75.9167 328.636 75.4091 326.651 75.4091C324.606 75.4091 322.901 75.9394 321.537 77C320.174 78.0455 319.144 79.4697 318.447 81.2727C317.765 83.0758 317.424 85.0909 317.424 87.3182C317.424 89.6061 317.772 91.6136 318.469 93.3409C319.166 95.0682 320.197 96.4167 321.56 97.3864C322.939 98.3561 324.636 98.8409 326.651 98.8409ZM364.879 105.705C361.607 105.705 358.751 104.955 356.311 103.455C353.872 101.955 351.978 99.8561 350.629 97.1591C349.281 94.4621 348.607 91.3106 348.607 87.7045C348.607 84.0833 349.281 80.9167 350.629 78.2045C351.978 75.4924 353.872 73.3864 356.311 71.8864C358.751 70.3864 361.607 69.6364 364.879 69.6364C368.152 69.6364 371.008 70.3864 373.448 71.8864C375.887 73.3864 377.781 75.4924 379.129 78.2045C380.478 80.9167 381.152 84.0833 381.152 87.7045C381.152 91.3106 380.478 94.4621 379.129 97.1591C377.781 99.8561 375.887 101.955 373.448 103.455C371.008 104.955 368.152 105.705 364.879 105.705ZM364.902 100C367.023 100 368.781 99.4394 370.175 98.3182C371.569 97.197 372.599 95.7045 373.266 93.8409C373.948 91.9773 374.289 89.9242 374.289 87.6818C374.289 85.4545 373.948 83.4091 373.266 81.5455C372.599 79.6667 371.569 78.1591 370.175 77.0227C368.781 75.8864 367.023 75.3182 364.902 75.3182C362.766 75.3182 360.993 75.8864 359.584 77.0227C358.19 78.1591 357.152 79.6667 356.47 81.5455C355.804 83.4091 355.47 85.4545 355.47 87.6818C355.47 89.9242 355.804 91.9773 356.47 93.8409C357.152 95.7045 358.19 97.197 359.584 98.3182C360.993 99.4394 362.766 100 364.902 100Z" fill="black" fill-opacity="0.8"/>
<path d="M1670 144H1682" stroke="#2329D6" stroke-linecap="round"/>
<path d="M1670 149H1682" stroke="#2329D6" stroke-linecap="round"/>
<path d="M1670 154H1682" stroke="#2329D6" stroke-linecap="round"/>
<path d="M1174 76H1186" stroke="#2329D6" stroke-linecap="round"/>
<path d="M1174 81H1186" stroke="#2329D6" stroke-linecap="round"/>
<path d="M1174 86H1186" stroke="#2329D6" stroke-linecap="round"/>
<path d="M800 70.75H880.189" stroke="#2329D6" stroke-width="1.86486" stroke-linecap="round"/>
<path d="M800 99.5H880.189" stroke="#2329D6" stroke-width="1.86486" stroke-linecap="round"/>
<path d="M800 128.25H880.189" stroke="#2329D6" stroke-width="1.86486" stroke-linecap="round"/>
<path d="M407.67 301V231.182H451.443V240.25H418.205V261.523H449.159V270.557H418.205V291.932H451.852V301H407.67ZM472.681 231.182V301H462.488V231.182H472.681ZM506.754 302.057C501.595 302.057 497.152 300.955 493.425 298.75C489.72 296.523 486.857 293.398 484.834 289.375C482.834 285.33 481.834 280.591 481.834 275.159C481.834 269.795 482.834 265.068 484.834 260.977C486.857 256.886 489.675 253.693 493.289 251.398C496.925 249.102 501.175 247.955 506.039 247.955C508.993 247.955 511.857 248.443 514.629 249.42C517.402 250.398 519.891 251.932 522.095 254.023C524.3 256.114 526.039 258.83 527.311 262.17C528.584 265.489 529.22 269.523 529.22 274.273V277.886H487.595V270.25H519.232C519.232 267.568 518.686 265.193 517.595 263.125C516.504 261.034 514.97 259.386 512.993 258.182C511.039 256.977 508.743 256.375 506.107 256.375C503.243 256.375 500.743 257.08 498.607 258.489C496.493 259.875 494.857 261.693 493.698 263.943C492.561 266.17 491.993 268.591 491.993 271.205V277.17C491.993 280.67 492.607 283.648 493.834 286.102C495.084 288.557 496.823 290.432 499.05 291.727C501.277 293 503.879 293.636 506.857 293.636C508.789 293.636 510.55 293.364 512.141 292.818C513.732 292.25 515.107 291.409 516.266 290.295C517.425 289.182 518.311 287.807 518.925 286.17L528.573 287.909C527.8 290.75 526.414 293.239 524.414 295.375C522.436 297.489 519.948 299.136 516.948 300.318C513.97 301.477 510.573 302.057 506.754 302.057ZM547.697 283.239L547.629 270.795H549.402L570.265 248.636H582.47L558.674 273.864H557.072L547.697 283.239ZM538.322 301V231.182H548.515V301H538.322ZM571.39 301L552.64 276.114L559.663 268.989L583.902 301H571.39ZM613.995 248.636V256.818H585.392V248.636H613.995ZM593.063 236.091H603.256V285.625C603.256 287.602 603.552 289.091 604.142 290.091C604.733 291.068 605.495 291.739 606.427 292.102C607.381 292.443 608.415 292.614 609.529 292.614C610.347 292.614 611.063 292.557 611.677 292.443C612.29 292.33 612.767 292.239 613.108 292.17L614.949 300.591C614.358 300.818 613.517 301.045 612.427 301.273C611.336 301.523 609.972 301.659 608.336 301.682C605.654 301.727 603.154 301.25 600.836 300.25C598.517 299.25 596.642 297.705 595.211 295.614C593.779 293.523 593.063 290.898 593.063 287.739V236.091ZM623.062 301V248.636H632.915V256.955H633.46C634.415 254.136 636.096 251.92 638.505 250.307C640.937 248.67 643.687 247.852 646.755 247.852C647.392 247.852 648.142 247.875 649.005 247.92C649.892 247.966 650.585 248.023 651.085 248.091V257.841C650.676 257.727 649.949 257.602 648.903 257.466C647.858 257.307 646.812 257.227 645.767 257.227C643.358 257.227 641.21 257.739 639.324 258.761C637.46 259.761 635.983 261.159 634.892 262.955C633.801 264.727 633.255 266.75 633.255 269.023V301H623.062ZM657.698 301V248.636H667.891V301H657.698ZM662.846 240.557C661.073 240.557 659.55 239.966 658.278 238.784C657.028 237.58 656.403 236.148 656.403 234.489C656.403 232.807 657.028 231.375 658.278 230.193C659.55 228.989 661.073 228.386 662.846 228.386C664.618 228.386 666.13 228.989 667.38 230.193C668.653 231.375 669.289 232.807 669.289 234.489C669.289 236.148 668.653 237.58 667.38 238.784C666.13 239.966 664.618 240.557 662.846 240.557ZM688.771 283.239L688.703 270.795H690.476L711.339 248.636H723.544L699.749 273.864H698.146L688.771 283.239ZM679.396 301V231.182H689.589V301H679.396ZM712.464 301L693.714 276.114L700.737 268.989L724.976 301H712.464ZM754.642 301V231.182H798.415V240.25H765.176V261.523H796.131V270.557H765.176V291.932H798.824V301H754.642ZM832.028 302.057C826.869 302.057 822.426 300.955 818.698 298.75C814.994 296.523 812.13 293.398 810.108 289.375C808.108 285.33 807.108 280.591 807.108 275.159C807.108 269.795 808.108 265.068 810.108 260.977C812.13 256.886 814.948 253.693 818.562 251.398C822.198 249.102 826.448 247.955 831.312 247.955C834.267 247.955 837.13 248.443 839.903 249.42C842.676 250.398 845.164 251.932 847.369 254.023C849.573 256.114 851.312 258.83 852.585 262.17C853.858 265.489 854.494 269.523 854.494 274.273V277.886H812.869V270.25H844.505C844.505 267.568 843.96 265.193 842.869 263.125C841.778 261.034 840.244 259.386 838.267 258.182C836.312 256.977 834.017 256.375 831.38 256.375C828.517 256.375 826.017 257.08 823.88 258.489C821.767 259.875 820.13 261.693 818.971 263.943C817.835 266.17 817.267 268.591 817.267 271.205V277.17C817.267 280.67 817.88 283.648 819.108 286.102C820.358 288.557 822.096 290.432 824.323 291.727C826.551 293 829.153 293.636 832.13 293.636C834.062 293.636 835.823 293.364 837.414 292.818C839.005 292.25 840.38 291.409 841.539 290.295C842.698 289.182 843.585 287.807 844.198 286.17L853.846 287.909C853.073 290.75 851.687 293.239 849.687 295.375C847.71 297.489 845.221 299.136 842.221 300.318C839.244 301.477 835.846 302.057 832.028 302.057ZM873.789 231.182V301H863.596V231.182H873.789ZM909.31 301V231.182H952.606V240.25H919.844V261.523H949.503V270.557H919.844V301H909.31ZM981.258 302.057C976.099 302.057 971.656 300.955 967.929 298.75C964.224 296.523 961.361 293.398 959.338 289.375C957.338 285.33 956.338 280.591 956.338 275.159C956.338 269.795 957.338 265.068 959.338 260.977C961.361 256.886 964.179 253.693 967.793 251.398C971.429 249.102 975.679 247.955 980.543 247.955C983.497 247.955 986.361 248.443 989.133 249.42C991.906 250.398 994.395 251.932 996.599 254.023C998.804 256.114 1000.54 258.83 1001.82 262.17C1003.09 265.489 1003.72 269.523 1003.72 274.273V277.886H962.099V270.25H993.736C993.736 267.568 993.19 265.193 992.099 263.125C991.008 261.034 989.474 259.386 987.497 258.182C985.543 256.977 983.247 256.375 980.611 256.375C977.747 256.375 975.247 257.08 973.111 258.489C970.997 259.875 969.361 261.693 968.202 263.943C967.065 266.17 966.497 268.591 966.497 271.205V277.17C966.497 280.67 967.111 283.648 968.338 286.102C969.588 288.557 971.327 290.432 973.554 291.727C975.781 293 978.383 293.636 981.361 293.636C983.293 293.636 985.054 293.364 986.645 292.818C988.236 292.25 989.611 291.409 990.77 290.295C991.929 289.182 992.815 287.807 993.429 286.17L1003.08 287.909C1002.3 290.75 1000.92 293.239 998.918 295.375C996.94 297.489 994.452 299.136 991.452 300.318C988.474 301.477 985.077 302.057 981.258 302.057ZM1052.06 261.42L1042.83 263.057C1042.44 261.875 1041.83 260.75 1040.99 259.682C1040.17 258.614 1039.05 257.739 1037.64 257.057C1036.24 256.375 1034.47 256.034 1032.36 256.034C1029.47 256.034 1027.06 256.682 1025.13 257.977C1023.2 259.25 1022.24 260.898 1022.24 262.92C1022.24 264.67 1022.88 266.08 1024.18 267.148C1025.47 268.216 1027.56 269.091 1030.45 269.773L1038.77 271.682C1043.59 272.795 1047.18 274.511 1049.54 276.83C1051.91 279.148 1053.09 282.159 1053.09 285.864C1053.09 289 1052.18 291.795 1050.36 294.25C1048.56 296.682 1046.05 298.591 1042.83 299.977C1039.62 301.364 1035.91 302.057 1031.68 302.057C1025.81 302.057 1021.03 300.807 1017.33 298.307C1013.62 295.784 1011.35 292.205 1010.51 287.568L1020.36 286.068C1020.97 288.636 1022.24 290.58 1024.14 291.898C1026.05 293.193 1028.54 293.841 1031.61 293.841C1034.95 293.841 1037.62 293.148 1039.62 291.761C1041.62 290.352 1042.62 288.636 1042.62 286.614C1042.62 284.977 1042.01 283.602 1040.78 282.489C1039.58 281.375 1037.72 280.534 1035.22 279.966L1026.36 278.023C1021.47 276.909 1017.86 275.136 1015.52 272.705C1013.2 270.273 1012.04 267.193 1012.04 263.466C1012.04 260.375 1012.91 257.67 1014.63 255.352C1016.36 253.034 1018.75 251.227 1021.79 249.932C1024.84 248.614 1028.33 247.955 1032.26 247.955C1037.92 247.955 1042.37 249.182 1045.62 251.636C1048.87 254.068 1051.02 257.33 1052.06 261.42ZM1086.53 248.636V256.818H1057.93V248.636H1086.53ZM1065.6 236.091H1075.79V285.625C1075.79 287.602 1076.09 289.091 1076.68 290.091C1077.27 291.068 1078.03 291.739 1078.96 292.102C1079.92 292.443 1080.95 292.614 1082.06 292.614C1082.88 292.614 1083.6 292.557 1084.21 292.443C1084.83 292.33 1085.3 292.239 1085.64 292.17L1087.48 300.591C1086.89 300.818 1086.05 301.045 1084.96 301.273C1083.87 301.523 1082.51 301.659 1080.87 301.682C1078.19 301.727 1075.69 301.25 1073.37 300.25C1071.05 299.25 1069.18 297.705 1067.75 295.614C1066.31 293.523 1065.6 290.898 1065.6 287.739V236.091ZM1095.6 301V248.636H1105.79V301H1095.6ZM1100.75 240.557C1098.97 240.557 1097.45 239.966 1096.18 238.784C1094.93 237.58 1094.3 236.148 1094.3 234.489C1094.3 232.807 1094.93 231.375 1096.18 230.193C1097.45 228.989 1098.97 228.386 1100.75 228.386C1102.52 228.386 1104.03 228.989 1105.28 230.193C1106.55 231.375 1107.19 232.807 1107.19 234.489C1107.19 236.148 1106.55 237.58 1105.28 238.784C1104.03 239.966 1102.52 240.557 1100.75 240.557ZM1162.09 248.636L1143.1 301H1132.19L1113.17 248.636H1124.11L1137.38 288.932H1137.92L1151.15 248.636H1162.09ZM1183.2 302.159C1179.88 302.159 1176.88 301.545 1174.2 300.318C1171.52 299.068 1169.39 297.261 1167.83 294.898C1166.28 292.534 1165.51 289.636 1165.51 286.205C1165.51 283.25 1166.08 280.818 1167.21 278.909C1168.35 277 1169.88 275.489 1171.82 274.375C1173.75 273.261 1175.91 272.42 1178.29 271.852C1180.68 271.284 1183.11 270.852 1185.59 270.557C1188.72 270.193 1191.27 269.898 1193.22 269.67C1195.18 269.42 1196.6 269.023 1197.49 268.477C1198.37 267.932 1198.82 267.045 1198.82 265.818V265.58C1198.82 262.602 1197.97 260.295 1196.29 258.659C1194.63 257.023 1192.16 256.205 1188.86 256.205C1185.43 256.205 1182.72 256.966 1180.75 258.489C1178.79 259.989 1177.44 261.659 1176.69 263.5L1167.11 261.318C1168.25 258.136 1169.91 255.568 1172.09 253.614C1174.29 251.636 1176.83 250.205 1179.69 249.318C1182.55 248.409 1185.57 247.955 1188.72 247.955C1190.82 247.955 1193.03 248.205 1195.37 248.705C1197.74 249.182 1199.94 250.068 1201.99 251.364C1204.05 252.659 1205.75 254.511 1207.07 256.92C1208.38 259.307 1209.04 262.409 1209.04 266.227V301H1199.09V293.841H1198.68C1198.02 295.159 1197.03 296.455 1195.71 297.727C1194.39 299 1192.7 300.057 1190.63 300.898C1188.57 301.739 1186.09 302.159 1183.2 302.159ZM1185.42 293.977C1188.24 293.977 1190.64 293.42 1192.64 292.307C1194.67 291.193 1196.2 289.739 1197.25 287.943C1198.32 286.125 1198.85 284.182 1198.85 282.114V275.364C1198.49 275.727 1197.78 276.068 1196.74 276.386C1195.71 276.682 1194.54 276.943 1193.22 277.17C1191.91 277.375 1190.62 277.568 1189.37 277.75C1188.12 277.909 1187.08 278.045 1186.24 278.159C1184.26 278.409 1182.45 278.83 1180.82 279.42C1179.2 280.011 1177.91 280.864 1176.93 281.977C1175.97 283.068 1175.5 284.523 1175.5 286.341C1175.5 288.864 1176.43 290.773 1178.29 292.068C1180.16 293.341 1182.53 293.977 1185.42 293.977ZM1230.6 231.182V301H1220.41V231.182H1230.6Z" fill="#1E1E1E"/>
<path fill-rule="evenodd" clip-rule="evenodd" d="M962.551 340H592V640.984H962.551V340ZM937.78 515.793L829.986 407.894L737.001 500.974L690.607 454.534L616.771 528.442V608.276H937.78V515.793ZM768.33 414.221C768.33 430.592 755.071 443.863 738.716 443.863C722.361 443.863 709.103 430.592 709.103 414.221C709.103 397.85 722.361 384.578 738.716 384.578C755.071 384.578 768.33 397.85 768.33 414.221Z" fill="#EEEEEE"/>
<rect x="172" y="738" width="1119" height="16" rx="3" fill="#C4C4C4"/>
<rect x="172" y="773.163" width="1119" height="16" rx="3" fill="#C4C4C4"/>
<rect x="172" y="808.326" width="1119" height="16" rx="3" fill="#C4C4C4"/>
<rect x="172" y="878" width="1119" height="16" rx="3" fill="#C4C4C4"/>
<rect x="172" y="913.163" width="1119" height="16" rx="3" fill="#C4C4C4"/>
<rect x="172" y="948.326" width="1119" height="16" rx="3" fill="#C4C4C4"/>
<rect x="172" y="1018" width="1119" height="16" rx="3" fill="#C4C4C4"/>
<rect x="172" y="1053.16" width="1119" height="16" rx="3" fill="#C4C4C4"/>
<rect x="172" y="1088.33" width="1119" height="16" rx="3" fill="#C4C4C4"/>
<rect x="172" y="1272" width="468" height="16" rx="3" fill="#C4C4C4"/>
<rect x="172" y="1307.16" width="468" height="16" rx="3" fill="#C4C4C4"/>
<rect x="172" y="1342.33" width="468" height="16" rx="3" fill="#C4C4C4"/>
<rect x="172" y="1434" width="468" height="16" rx="3" fill="#C4C4C4"/>
<rect x="172" y="1469.16" width="468" height="16" rx="3" fill="#C4C4C4"/>
<rect x="172" y="1504.33" width="468" height="16" rx="3" fill="#C4C4C4"/>
<rect x="172" y="1580" width="468" height="16" rx="3" fill="#C4C4C4"/>
<rect x="172" y="1615.16" width="468" height="16" rx="3" fill="#C4C4C4"/>
<rect x="172" y="1650.33" width="468" height="16" rx="3" fill="#C4C4C4"/>
<path d="M519.045 2699H511.591L528.341 2652.45H536.455L553.205 2699H545.75L532.591 2660.91H532.227L519.045 2699ZM520.295 2680.77H544.477V2686.68H520.295V2680.77ZM557.973 2699V2664.09H564.541V2669.64H564.904C565.541 2667.76 566.662 2666.28 568.268 2665.2C569.889 2664.11 571.723 2663.57 573.768 2663.57C574.192 2663.57 574.692 2663.58 575.268 2663.61C575.859 2663.64 576.321 2663.68 576.654 2663.73V2670.23C576.382 2670.15 575.897 2670.07 575.2 2669.98C574.503 2669.87 573.806 2669.82 573.109 2669.82C571.503 2669.82 570.071 2670.16 568.814 2670.84C567.571 2671.51 566.586 2672.44 565.859 2673.64C565.132 2674.82 564.768 2676.17 564.768 2677.68V2699H557.973ZM599.485 2664.09V2669.55H580.417V2664.09H599.485ZM585.531 2655.73H592.326V2688.75C592.326 2690.07 592.523 2691.06 592.917 2691.73C593.311 2692.38 593.818 2692.83 594.44 2693.07C595.076 2693.3 595.765 2693.41 596.508 2693.41C597.053 2693.41 597.531 2693.37 597.94 2693.3C598.349 2693.22 598.667 2693.16 598.894 2693.11L600.121 2698.73C599.728 2698.88 599.167 2699.03 598.44 2699.18C597.712 2699.35 596.803 2699.44 595.712 2699.45C593.925 2699.48 592.258 2699.17 590.712 2698.5C589.167 2697.83 587.917 2696.8 586.962 2695.41C586.008 2694.02 585.531 2692.27 585.531 2690.16V2655.73ZM605.594 2699V2664.09H612.39V2699H605.594ZM609.026 2658.7C607.844 2658.7 606.829 2658.31 605.981 2657.52C605.147 2656.72 604.731 2655.77 604.731 2654.66C604.731 2653.54 605.147 2652.58 605.981 2651.8C606.829 2650.99 607.844 2650.59 609.026 2650.59C610.208 2650.59 611.215 2650.99 612.049 2651.8C612.897 2652.58 613.321 2653.54 613.321 2654.66C613.321 2655.77 612.897 2656.72 612.049 2657.52C611.215 2658.31 610.208 2658.7 609.026 2658.7ZM646.283 2672.61L640.124 2673.7C639.866 2672.92 639.457 2672.17 638.896 2671.45C638.351 2670.74 637.609 2670.16 636.669 2669.7C635.73 2669.25 634.555 2669.02 633.146 2669.02C631.222 2669.02 629.616 2669.45 628.328 2670.32C627.04 2671.17 626.396 2672.27 626.396 2673.61C626.396 2674.78 626.828 2675.72 627.692 2676.43C628.555 2677.14 629.949 2677.73 631.874 2678.18L637.419 2679.45C640.631 2680.2 643.025 2681.34 644.601 2682.89C646.177 2684.43 646.965 2686.44 646.965 2688.91C646.965 2691 646.359 2692.86 645.146 2694.5C643.949 2696.12 642.275 2697.39 640.124 2698.32C637.987 2699.24 635.51 2699.7 632.692 2699.7C628.783 2699.7 625.593 2698.87 623.124 2697.2C620.654 2695.52 619.139 2693.14 618.578 2690.05L625.146 2689.05C625.555 2690.76 626.396 2692.05 627.669 2692.93C628.942 2693.8 630.601 2694.23 632.646 2694.23C634.874 2694.23 636.654 2693.77 637.987 2692.84C639.321 2691.9 639.987 2690.76 639.987 2689.41C639.987 2688.32 639.578 2687.4 638.76 2686.66C637.957 2685.92 636.722 2685.36 635.055 2684.98L629.146 2683.68C625.889 2682.94 623.48 2681.76 621.919 2680.14C620.374 2678.52 619.601 2676.46 619.601 2673.98C619.601 2671.92 620.177 2670.11 621.328 2668.57C622.48 2667.02 624.071 2665.82 626.101 2664.95C628.131 2664.08 630.457 2663.64 633.078 2663.64C636.851 2663.64 639.821 2664.45 641.987 2666.09C644.154 2667.71 645.586 2669.89 646.283 2672.61ZM669.324 2664.09V2669.55H650.255V2664.09H669.324ZM655.369 2655.73H662.165V2688.75C662.165 2690.07 662.362 2691.06 662.755 2691.73C663.149 2692.38 663.657 2692.83 664.278 2693.07C664.915 2693.3 665.604 2693.41 666.346 2693.41C666.892 2693.41 667.369 2693.37 667.778 2693.3C668.187 2693.22 668.505 2693.16 668.733 2693.11L669.96 2698.73C669.566 2698.88 669.005 2699.03 668.278 2699.18C667.551 2699.35 666.642 2699.44 665.551 2699.45C663.763 2699.48 662.096 2699.17 660.551 2698.5C659.005 2697.83 657.755 2696.8 656.801 2695.41C655.846 2694.02 655.369 2692.27 655.369 2690.16V2655.73ZM515.114 2795V2748.45H522.136V2788.95H543.227V2795H515.114ZM549.285 2795V2760.09H556.081V2795H549.285ZM552.717 2754.7C551.535 2754.7 550.52 2754.31 549.672 2753.52C548.838 2752.72 548.422 2751.77 548.422 2750.66C548.422 2749.54 548.838 2748.58 549.672 2747.8C550.52 2746.99 551.535 2746.59 552.717 2746.59C553.899 2746.59 554.906 2746.99 555.74 2747.8C556.588 2748.58 557.012 2749.54 557.012 2750.66C557.012 2751.77 556.588 2752.72 555.74 2753.52C554.906 2754.31 553.899 2754.7 552.717 2754.7ZM570.61 2774.27V2795H563.815V2760.09H570.337V2765.77H570.769C571.572 2763.92 572.83 2762.44 574.542 2761.32C576.269 2760.2 578.443 2759.64 581.065 2759.64C583.443 2759.64 585.527 2760.14 587.315 2761.14C589.103 2762.12 590.489 2763.59 591.474 2765.55C592.459 2767.5 592.951 2769.92 592.951 2772.8V2795H586.156V2773.61C586.156 2771.08 585.496 2769.11 584.178 2767.68C582.86 2766.24 581.05 2765.52 578.746 2765.52C577.171 2765.52 575.769 2765.86 574.542 2766.55C573.33 2767.23 572.368 2768.23 571.656 2769.55C570.959 2770.85 570.61 2772.42 570.61 2774.27ZM615.702 2795.7C612.263 2795.7 609.301 2794.97 606.816 2793.5C604.346 2792.02 602.437 2789.93 601.089 2787.25C599.755 2784.55 599.089 2781.39 599.089 2777.77C599.089 2774.2 599.755 2771.05 601.089 2768.32C602.437 2765.59 604.316 2763.46 606.725 2761.93C609.149 2760.4 611.982 2759.64 615.225 2759.64C617.195 2759.64 619.104 2759.96 620.952 2760.61C622.801 2761.27 624.46 2762.29 625.929 2763.68C627.399 2765.08 628.558 2766.89 629.407 2769.11C630.255 2771.33 630.679 2774.02 630.679 2777.18V2779.59H602.929V2774.5H624.02C624.02 2772.71 623.657 2771.13 622.929 2769.75C622.202 2768.36 621.179 2767.26 619.861 2766.45C618.558 2765.65 617.028 2765.25 615.27 2765.25C613.361 2765.25 611.695 2765.72 610.27 2766.66C608.861 2767.58 607.77 2768.8 606.998 2770.3C606.24 2771.78 605.861 2773.39 605.861 2775.14V2779.11C605.861 2781.45 606.27 2783.43 607.089 2785.07C607.922 2786.7 609.081 2787.95 610.566 2788.82C612.051 2789.67 613.785 2790.09 615.77 2790.09C617.058 2790.09 618.232 2789.91 619.293 2789.55C620.354 2789.17 621.27 2788.61 622.043 2787.86C622.816 2787.12 623.407 2786.2 623.816 2785.11L630.248 2786.27C629.732 2788.17 628.808 2789.83 627.475 2791.25C626.157 2792.66 624.498 2793.76 622.498 2794.55C620.513 2795.32 618.248 2795.7 615.702 2795.7ZM658.925 2780.52V2760.09H665.743V2795H659.061V2788.95H658.698C657.895 2790.82 656.607 2792.37 654.834 2793.61C653.076 2794.84 650.887 2795.45 648.266 2795.45C646.023 2795.45 644.038 2794.96 642.311 2793.98C640.599 2792.98 639.251 2791.5 638.266 2789.55C637.296 2787.59 636.811 2785.17 636.811 2782.3V2760.09H643.607V2781.48C643.607 2783.86 644.266 2785.75 645.584 2787.16C646.902 2788.57 648.614 2789.27 650.72 2789.27C651.993 2789.27 653.258 2788.95 654.516 2788.32C655.788 2787.68 656.841 2786.72 657.675 2785.43C658.523 2784.14 658.94 2782.51 658.925 2780.52ZM673.466 2808.09V2760.09H680.102V2765.75H680.67C681.064 2765.02 681.632 2764.18 682.375 2763.23C683.117 2762.27 684.148 2761.44 685.466 2760.73C686.784 2760 688.526 2759.64 690.693 2759.64C693.511 2759.64 696.026 2760.35 698.238 2761.77C700.451 2763.2 702.185 2765.25 703.443 2767.93C704.716 2770.61 705.352 2773.84 705.352 2777.61C705.352 2781.39 704.723 2784.62 703.466 2787.32C702.208 2790 700.481 2792.07 698.284 2793.52C696.087 2794.96 693.579 2795.68 690.761 2795.68C688.64 2795.68 686.905 2795.33 685.557 2794.61C684.223 2793.9 683.178 2793.07 682.42 2792.11C681.663 2791.16 681.079 2790.31 680.67 2789.57H680.261V2808.09H673.466ZM680.125 2777.55C680.125 2780 680.481 2782.15 681.193 2784C681.905 2785.85 682.935 2787.3 684.284 2788.34C685.632 2789.37 687.284 2789.89 689.238 2789.89C691.269 2789.89 692.966 2789.35 694.329 2788.27C695.693 2787.18 696.723 2785.7 697.42 2783.84C698.132 2781.98 698.488 2779.88 698.488 2777.55C698.488 2775.24 698.14 2773.17 697.443 2771.34C696.761 2769.51 695.731 2768.06 694.352 2767C692.988 2765.94 691.284 2765.41 689.238 2765.41C687.269 2765.41 685.602 2765.92 684.238 2766.93C682.89 2767.95 681.867 2769.36 681.17 2771.18C680.473 2773 680.125 2775.12 680.125 2777.55Z" fill="#1E1E1E"/>
<path d="M174.818 1170.23V1164.18H210.841V1170.23H196.318V1210.73H189.318V1170.23H174.818ZM216.848 1210.73V1175.82H223.643V1210.73H216.848ZM220.279 1170.43C219.098 1170.43 218.083 1170.04 217.234 1169.25C216.401 1168.45 215.984 1167.49 215.984 1166.39C215.984 1165.27 216.401 1164.31 217.234 1163.52C218.083 1162.72 219.098 1162.32 220.279 1162.32C221.461 1162.32 222.469 1162.72 223.302 1163.52C224.151 1164.31 224.575 1165.27 224.575 1166.39C224.575 1167.49 224.151 1168.45 223.302 1169.25C222.469 1170.04 221.461 1170.43 220.279 1170.43ZM246.082 1211.43C242.703 1211.43 239.794 1210.67 237.354 1209.14C234.93 1207.59 233.067 1205.46 231.764 1202.75C230.461 1200.04 229.809 1196.93 229.809 1193.43C229.809 1189.89 230.476 1186.76 231.809 1184.05C233.142 1181.32 235.021 1179.19 237.445 1177.66C239.87 1176.13 242.726 1175.36 246.014 1175.36C248.665 1175.36 251.029 1175.86 253.104 1176.84C255.18 1177.81 256.854 1179.17 258.127 1180.93C259.415 1182.69 260.18 1184.74 260.423 1187.09H253.809C253.445 1185.45 252.612 1184.05 251.309 1182.86C250.021 1181.68 248.294 1181.09 246.127 1181.09C244.233 1181.09 242.574 1181.59 241.15 1182.59C239.741 1183.58 238.642 1184.98 237.854 1186.82C237.067 1188.64 236.673 1190.79 236.673 1193.27C236.673 1195.82 237.059 1198.02 237.832 1199.86C238.604 1201.71 239.695 1203.14 241.104 1204.16C242.529 1205.17 244.203 1205.68 246.127 1205.68C247.415 1205.68 248.582 1205.45 249.627 1204.98C250.688 1204.49 251.574 1203.8 252.286 1202.91C253.014 1202.02 253.521 1200.94 253.809 1199.68H260.423C260.18 1201.94 259.445 1203.95 258.218 1205.73C256.991 1207.5 255.347 1208.89 253.286 1209.91C251.241 1210.92 248.839 1211.43 246.082 1211.43ZM272.532 1198.89L272.486 1190.59H273.668L287.577 1175.82H295.714L279.85 1192.64H278.782L272.532 1198.89ZM266.282 1210.73V1164.18H273.077V1210.73H266.282ZM288.327 1210.73L275.827 1194.14L280.509 1189.39L296.668 1210.73H288.327ZM314.107 1211.43C310.667 1211.43 307.705 1210.7 305.22 1209.23C302.751 1207.74 300.841 1205.66 299.493 1202.98C298.16 1200.28 297.493 1197.12 297.493 1193.5C297.493 1189.92 298.16 1186.77 299.493 1184.05C300.841 1181.32 302.72 1179.19 305.129 1177.66C307.554 1176.13 310.387 1175.36 313.629 1175.36C315.599 1175.36 317.508 1175.69 319.357 1176.34C321.205 1176.99 322.864 1178.02 324.334 1179.41C325.804 1180.8 326.963 1182.61 327.811 1184.84C328.66 1187.05 329.084 1189.74 329.084 1192.91V1195.32H301.334V1190.23H322.425C322.425 1188.44 322.061 1186.86 321.334 1185.48C320.607 1184.08 319.584 1182.98 318.266 1182.18C316.963 1181.38 315.432 1180.98 313.675 1180.98C311.766 1180.98 310.099 1181.45 308.675 1182.39C307.266 1183.31 306.175 1184.52 305.402 1186.02C304.645 1187.51 304.266 1189.12 304.266 1190.86V1194.84C304.266 1197.17 304.675 1199.16 305.493 1200.8C306.326 1202.43 307.485 1203.68 308.97 1204.55C310.455 1205.39 312.19 1205.82 314.175 1205.82C315.463 1205.82 316.637 1205.64 317.698 1205.27C318.758 1204.89 319.675 1204.33 320.448 1203.59C321.22 1202.85 321.811 1201.93 322.22 1200.84L328.652 1202C328.137 1203.89 327.213 1205.55 325.879 1206.98C324.561 1208.39 322.902 1209.48 320.902 1210.27C318.917 1211.05 316.652 1211.43 314.107 1211.43ZM351.511 1175.82V1181.27H332.443V1175.82H351.511ZM337.557 1167.45H344.352V1200.48C344.352 1201.8 344.549 1202.79 344.943 1203.45C345.337 1204.11 345.844 1204.55 346.466 1204.8C347.102 1205.02 347.791 1205.14 348.534 1205.14C349.079 1205.14 349.557 1205.1 349.966 1205.02C350.375 1204.95 350.693 1204.89 350.92 1204.84L352.148 1210.45C351.754 1210.61 351.193 1210.76 350.466 1210.91C349.738 1211.08 348.829 1211.17 347.738 1211.18C345.951 1211.21 344.284 1210.89 342.738 1210.23C341.193 1209.56 339.943 1208.53 338.988 1207.14C338.034 1205.74 337.557 1203.99 337.557 1201.89V1167.45ZM380.718 1164.18V1210.73H373.695V1164.18H380.718ZM395.787 1190V1210.73H388.992V1175.82H395.514V1181.5H395.946C396.749 1179.65 398.007 1178.17 399.719 1177.05C401.446 1175.92 403.62 1175.36 406.242 1175.36C408.62 1175.36 410.704 1175.86 412.492 1176.86C414.28 1177.85 415.666 1179.32 416.651 1181.27C417.636 1183.23 418.128 1185.64 418.128 1188.52V1210.73H411.333V1189.34C411.333 1186.81 410.673 1184.83 409.355 1183.41C408.037 1181.97 406.227 1181.25 403.923 1181.25C402.348 1181.25 400.946 1181.59 399.719 1182.27C398.507 1182.95 397.545 1183.95 396.833 1185.27C396.136 1186.58 395.787 1188.15 395.787 1190ZM442.447 1175.82V1181.27H422.72V1175.82H442.447ZM428.129 1210.73V1171.77C428.129 1169.59 428.606 1167.78 429.561 1166.34C430.516 1164.89 431.781 1163.8 433.356 1163.09C434.932 1162.36 436.644 1162 438.493 1162C439.856 1162 441.023 1162.11 441.993 1162.34C442.962 1162.55 443.682 1162.75 444.152 1162.93L442.561 1168.43C442.243 1168.34 441.834 1168.23 441.334 1168.11C440.834 1167.98 440.228 1167.91 439.516 1167.91C437.864 1167.91 436.682 1168.32 435.97 1169.14C435.273 1169.95 434.925 1171.14 434.925 1172.68V1210.73H428.129ZM461.38 1211.43C458.108 1211.43 455.251 1210.68 452.812 1209.18C450.373 1207.68 448.479 1205.58 447.13 1202.89C445.782 1200.19 445.108 1197.04 445.108 1193.43C445.108 1189.81 445.782 1186.64 447.13 1183.93C448.479 1181.22 450.373 1179.11 452.812 1177.61C455.251 1176.11 458.108 1175.36 461.38 1175.36C464.653 1175.36 467.509 1176.11 469.948 1177.61C472.388 1179.11 474.282 1181.22 475.63 1183.93C476.979 1186.64 477.653 1189.81 477.653 1193.43C477.653 1197.04 476.979 1200.19 475.63 1202.89C474.282 1205.58 472.388 1207.68 469.948 1209.18C467.509 1210.68 464.653 1211.43 461.38 1211.43ZM461.403 1205.73C463.524 1205.73 465.282 1205.17 466.676 1204.05C468.07 1202.92 469.1 1201.43 469.767 1199.57C470.448 1197.7 470.789 1195.65 470.789 1193.41C470.789 1191.18 470.448 1189.14 469.767 1187.27C469.1 1185.39 468.07 1183.89 466.676 1182.75C465.282 1181.61 463.524 1181.05 461.403 1181.05C459.267 1181.05 457.494 1181.61 456.085 1182.75C454.691 1183.89 453.653 1185.39 452.971 1187.27C452.304 1189.14 451.971 1191.18 451.971 1193.41C451.971 1195.65 452.304 1197.7 452.971 1199.57C453.653 1201.43 454.691 1202.92 456.085 1204.05C457.494 1205.17 459.267 1205.73 461.403 1205.73Z" fill="#1E1E1E"/>
<ellipse cx="471.5" cy="3046" rx="111.5" ry="112" fill="white" stroke="#CCCCCC" stroke-width="4" stroke-miterlimit="0" stroke-linecap="round"/>
<path fill-rule="evenodd" clip-rule="evenodd" d="M526.033 2999.27H410.46V3093.62H526.033V2999.27ZM518.307 3054.38L484.686 3020.55L455.685 3049.73L441.215 3035.17L418.186 3058.34V3083.37H518.307V3054.38ZM465.457 3022.54C465.457 3027.67 461.321 3031.83 456.22 3031.83C451.119 3031.83 446.984 3027.67 446.984 3022.54C446.984 3017.41 451.119 3013.25 456.22 3013.25C461.321 3013.25 465.457 3017.41 465.457 3022.54Z" fill="#EEEEEE"/>
<ellipse cx="727.5" cy="3179" rx="111.5" ry="112" fill="white" stroke="#CCCCCC" stroke-width="4" stroke-miterlimit="0" stroke-linecap="round"/>
<path fill-rule="evenodd" clip-rule="evenodd" d="M740.367 3107.53L627.5 3082.67L607.206 3174.81L720.073 3199.67L740.367 3107.53ZM720.969 3159.69L695.411 3119.42L660.812 3141.68L649.812 3124.35L622.339 3142.02L616.956 3166.46L714.734 3188L720.969 3159.69ZM676.205 3117.23C675.101 3122.24 670.167 3125.41 665.186 3124.31C660.204 3123.22 657.06 3118.26 658.164 3113.25C659.268 3108.24 664.201 3105.07 669.183 3106.16C674.165 3107.26 677.308 3112.21 676.205 3117.23Z" fill="#EEEEEE"/>
<ellipse cx="962.5" cy="3291" rx="111.5" ry="112" fill="white" stroke="#CCCCCC" stroke-width="4" stroke-miterlimit="0" stroke-linecap="round"/>
<path fill-rule="evenodd" clip-rule="evenodd" d="M749.048 3853.27H633.475V3947.62H749.048V3853.27ZM741.322 3908.38L707.701 3874.55L678.7 3903.73L664.23 3889.17L641.2 3912.34V3937.37H741.322V3908.38ZM688.472 3876.54C688.472 3881.67 684.336 3885.83 679.235 3885.83C674.134 3885.83 669.999 3881.67 669.999 3876.54C669.999 3871.41 674.134 3867.25 679.235 3867.25C684.336 3867.25 688.472 3871.41 688.472 3876.54Z" fill="#EEEEEE"/>
<ellipse cx="1179.5" cy="3450" rx="111.5" ry="112" fill="white" stroke="#CCCCCC" stroke-width="4" stroke-miterlimit="0" stroke-linecap="round"/>
<path fill-rule="evenodd" clip-rule="evenodd" d="M1234.03 3403.27H1118.46V3497.62H1234.03V3403.27ZM1226.31 3458.38L1192.69 3424.55L1163.68 3453.73L1149.21 3439.17L1126.19 3462.34V3487.37H1226.31V3458.38ZM1173.46 3426.54C1173.46 3431.67 1169.32 3435.83 1164.22 3435.83C1159.12 3435.83 1154.98 3431.67 1154.98 3426.54C1154.98 3421.41 1159.12 3417.25 1164.22 3417.25C1169.32 3417.25 1173.46 3421.41 1173.46 3426.54Z" fill="#EEEEEE"/>
<rect x="228" y="3722" width="796" height="1005" rx="6" fill="white" stroke="#CCCCCC" stroke-width="4" stroke-miterlimit="0" stroke-linecap="round"/>
<path d="M491.67 3916V3846.18H534.966V3855.25H502.205V3876.52H531.864V3885.56H502.205V3916H491.67ZM563.107 3917.06C558.198 3917.06 553.914 3915.93 550.255 3913.68C546.596 3911.43 543.755 3908.28 541.732 3904.24C539.71 3900.19 538.698 3895.47 538.698 3890.06C538.698 3884.62 539.71 3879.87 541.732 3875.81C543.755 3871.74 546.596 3868.58 550.255 3866.33C553.914 3864.08 558.198 3862.95 563.107 3862.95C568.016 3862.95 572.301 3864.08 575.96 3866.33C579.619 3868.58 582.46 3871.74 584.482 3875.81C586.505 3879.87 587.516 3884.62 587.516 3890.06C587.516 3895.47 586.505 3900.19 584.482 3904.24C582.46 3908.28 579.619 3911.43 575.96 3913.68C572.301 3915.93 568.016 3917.06 563.107 3917.06ZM563.141 3908.5C566.323 3908.5 568.96 3907.66 571.051 3905.98C573.141 3904.3 574.687 3902.06 575.687 3899.26C576.71 3896.47 577.221 3893.39 577.221 3890.02C577.221 3886.68 576.71 3883.61 575.687 3880.82C574.687 3878 573.141 3875.74 571.051 3874.03C568.96 3872.33 566.323 3871.48 563.141 3871.48C559.937 3871.48 557.278 3872.33 555.164 3874.03C553.073 3875.74 551.516 3878 550.494 3880.82C549.494 3883.61 548.994 3886.68 548.994 3890.02C548.994 3893.39 549.494 3896.47 550.494 3899.26C551.516 3902.06 553.073 3904.3 555.164 3905.98C557.278 3907.66 559.937 3908.5 563.141 3908.5ZM596.686 3916V3863.64H606.539V3871.95H607.084C608.039 3869.14 609.72 3866.92 612.129 3865.31C614.561 3863.67 617.311 3862.85 620.379 3862.85C621.016 3862.85 621.766 3862.87 622.629 3862.92C623.516 3862.97 624.209 3863.02 624.709 3863.09V3872.84C624.3 3872.73 623.573 3872.6 622.527 3872.47C621.482 3872.31 620.436 3872.23 619.391 3872.23C616.982 3872.23 614.834 3872.74 612.948 3873.76C611.084 3874.76 609.607 3876.16 608.516 3877.95C607.425 3879.73 606.879 3881.75 606.879 3884.02V3916H596.686ZM631.322 3916V3863.64H641.106V3872.16H641.754C642.845 3869.27 644.629 3867.02 647.106 3865.41C649.583 3863.77 652.549 3862.95 656.004 3862.95C659.504 3862.95 662.436 3863.77 664.799 3865.41C667.186 3867.05 668.947 3869.3 670.083 3872.16H670.629C671.879 3869.36 673.867 3867.14 676.595 3865.48C679.322 3863.8 682.572 3862.95 686.345 3862.95C691.095 3862.95 694.97 3864.44 697.97 3867.42C700.992 3870.4 702.504 3874.89 702.504 3880.89V3916H692.311V3881.84C692.311 3878.3 691.345 3875.73 689.413 3874.14C687.481 3872.55 685.174 3871.75 682.492 3871.75C679.174 3871.75 676.595 3872.77 674.754 3874.82C672.913 3876.84 671.992 3879.44 671.992 3882.62V3916H661.833V3881.19C661.833 3878.35 660.947 3876.07 659.174 3874.34C657.402 3872.61 655.095 3871.75 652.254 3871.75C650.322 3871.75 648.538 3872.26 646.902 3873.28C645.288 3874.28 643.981 3875.68 642.981 3877.48C642.004 3879.27 641.515 3881.35 641.515 3883.72V3916H631.322Z" fill="#1E1E1E"/>
<circle cx="282" cy="5256" r="40" fill="white" stroke="#CCCCCC" stroke-width="4" stroke-miterlimit="0" stroke-linecap="round"/>
<circle cx="426" cy="5256" r="40" fill="white" stroke="#CCCCCC" stroke-width="4" stroke-miterlimit="0" stroke-linecap="round"/>
<circle cx="570" cy="5256" r="40" fill="white" stroke="#CCCCCC" stroke-width="4" stroke-miterlimit="0" stroke-linecap="round"/>
<circle cx="714" cy="5256" r="40" fill="white" stroke="#CCCCCC" stroke-width="4" stroke-miterlimit="0" stroke-linecap="round"/>
<circle cx="842" cy="5256" r="40" fill="white" stroke="#CCCCCC" stroke-width="4" stroke-miterlimit="0" stroke-linecap="round"/>
<rect x="2" y="5344" width="1072" height="64" rx="6" fill="white" stroke="#CCCCCC" stroke-width="4" stroke-miterlimit="0" stroke-linecap="round"/>
<path d="M495.646 5369.18V5372.59H483.316V5369.18H495.646ZM486.697 5391V5366.65C486.697 5365.29 486.995 5364.16 487.592 5363.26C488.188 5362.35 488.979 5361.67 489.964 5361.23C490.949 5360.77 492.019 5360.55 493.174 5360.55C494.026 5360.55 494.756 5360.62 495.362 5360.76C495.968 5360.89 496.417 5361.01 496.711 5361.13L495.717 5364.57C495.518 5364.51 495.262 5364.44 494.95 5364.37C494.637 5364.28 494.258 5364.24 493.813 5364.24C492.781 5364.24 492.042 5364.49 491.597 5365.01C491.162 5365.52 490.944 5366.26 490.944 5367.22V5391H486.697ZM507.479 5391.44C505.433 5391.44 503.648 5390.97 502.124 5390.03C500.599 5389.1 499.415 5387.79 498.572 5386.1C497.73 5384.41 497.308 5382.44 497.308 5380.19C497.308 5377.93 497.73 5375.95 498.572 5374.25C499.415 5372.56 500.599 5371.24 502.124 5370.3C503.648 5369.37 505.433 5368.9 507.479 5368.9C509.524 5368.9 511.309 5369.37 512.834 5370.3C514.358 5371.24 515.542 5372.56 516.385 5374.25C517.228 5375.95 517.649 5377.93 517.649 5380.19C517.649 5382.44 517.228 5384.41 516.385 5386.1C515.542 5387.79 514.358 5389.1 512.834 5390.03C511.309 5390.97 509.524 5391.44 507.479 5391.44ZM507.493 5387.88C508.819 5387.88 509.917 5387.52 510.788 5386.82C511.66 5386.12 512.304 5385.19 512.72 5384.03C513.146 5382.86 513.359 5381.58 513.359 5380.18C513.359 5378.78 513.146 5377.51 512.72 5376.34C512.304 5375.17 511.66 5374.22 510.788 5373.51C509.917 5372.8 508.819 5372.45 507.493 5372.45C506.158 5372.45 505.05 5372.8 504.169 5373.51C503.298 5374.22 502.649 5375.17 502.223 5376.34C501.806 5377.51 501.598 5378.78 501.598 5380.18C501.598 5381.58 501.806 5382.86 502.223 5384.03C502.649 5385.19 503.298 5386.12 504.169 5386.82C505.05 5387.52 506.158 5387.88 507.493 5387.88ZM530.7 5391.44C528.655 5391.44 526.87 5390.97 525.345 5390.03C523.821 5389.1 522.637 5387.79 521.794 5386.1C520.951 5384.41 520.53 5382.44 520.53 5380.19C520.53 5377.93 520.951 5375.95 521.794 5374.25C522.637 5372.56 523.821 5371.24 525.345 5370.3C526.87 5369.37 528.655 5368.9 530.7 5368.9C532.746 5368.9 534.531 5369.37 536.055 5370.3C537.58 5371.24 538.764 5372.56 539.607 5374.25C540.449 5375.95 540.871 5377.93 540.871 5380.19C540.871 5382.44 540.449 5384.41 539.607 5386.1C538.764 5387.79 537.58 5389.1 536.055 5390.03C534.531 5390.97 532.746 5391.44 530.7 5391.44ZM530.715 5387.88C532.04 5387.88 533.139 5387.52 534.01 5386.82C534.881 5386.12 535.525 5385.19 535.942 5384.03C536.368 5382.86 536.581 5381.58 536.581 5380.18C536.581 5378.78 536.368 5377.51 535.942 5376.34C535.525 5375.17 534.881 5374.22 534.01 5373.51C533.139 5372.8 532.04 5372.45 530.715 5372.45C529.379 5372.45 528.271 5372.8 527.391 5373.51C526.519 5374.22 525.871 5375.17 525.445 5376.34C525.028 5377.51 524.82 5378.78 524.82 5380.18C524.82 5381.58 525.028 5382.86 525.445 5384.03C525.871 5385.19 526.519 5386.12 527.391 5386.82C528.271 5387.52 529.379 5387.88 530.715 5387.88ZM554.916 5369.18V5372.59H542.999V5369.18H554.916ZM546.195 5363.95H550.442V5384.59C550.442 5385.42 550.565 5386.04 550.811 5386.45C551.057 5386.86 551.375 5387.14 551.763 5387.29C552.16 5387.43 552.591 5387.51 553.055 5387.51C553.396 5387.51 553.695 5387.48 553.95 5387.43C554.206 5387.39 554.405 5387.35 554.547 5387.32L555.314 5390.83C555.068 5390.92 554.717 5391.02 554.263 5391.11C553.808 5391.22 553.24 5391.27 552.558 5391.28C551.441 5391.3 550.399 5391.1 549.433 5390.69C548.467 5390.27 547.686 5389.63 547.089 5388.76C546.493 5387.88 546.195 5386.79 546.195 5385.47V5363.95ZM567.903 5391.44C565.754 5391.44 563.902 5390.98 562.349 5390.06C560.806 5389.13 559.613 5387.83 558.77 5386.16C557.937 5384.47 557.52 5382.5 557.52 5380.23C557.52 5378 557.937 5376.03 558.77 5374.32C559.613 5372.62 560.787 5371.29 562.293 5370.33C563.808 5369.38 565.579 5368.9 567.605 5368.9C568.836 5368.9 570.029 5369.1 571.185 5369.51C572.34 5369.92 573.377 5370.55 574.295 5371.43C575.214 5372.3 575.938 5373.43 576.469 5374.82C576.999 5376.2 577.264 5377.88 577.264 5379.86V5381.37H559.92V5378.19H573.102C573.102 5377.07 572.875 5376.08 572.42 5375.22C571.966 5374.35 571.327 5373.66 570.503 5373.16C569.688 5372.66 568.732 5372.41 567.633 5372.41C566.44 5372.41 565.399 5372.7 564.508 5373.29C563.628 5373.86 562.946 5374.62 562.463 5375.56C561.99 5376.49 561.753 5377.5 561.753 5378.59V5381.07C561.753 5382.53 562.008 5383.77 562.52 5384.79C563.041 5385.82 563.765 5386.6 564.693 5387.14C565.621 5387.67 566.705 5387.93 567.946 5387.93C568.751 5387.93 569.485 5387.82 570.148 5387.59C570.811 5387.35 571.383 5387 571.866 5386.54C572.349 5386.08 572.719 5385.5 572.974 5384.82L576.994 5385.55C576.672 5386.73 576.095 5387.77 575.261 5388.66C574.437 5389.54 573.401 5390.22 572.151 5390.72C570.91 5391.2 569.494 5391.44 567.903 5391.44ZM581.097 5391V5369.18H585.202V5372.65H585.429C585.827 5371.47 586.527 5370.55 587.531 5369.88C588.544 5369.2 589.69 5368.86 590.969 5368.86C591.234 5368.86 591.546 5368.86 591.906 5368.88C592.275 5368.9 592.564 5368.93 592.773 5368.95V5373.02C592.602 5372.97 592.299 5372.92 591.864 5372.86C591.428 5372.79 590.992 5372.76 590.557 5372.76C589.553 5372.76 588.658 5372.97 587.872 5373.4C587.096 5373.82 586.48 5374.4 586.025 5375.15C585.571 5375.89 585.344 5376.73 585.344 5377.68V5391H581.097Z" fill="black" fill-opacity="0.8"/>
<path d="M248.818 4937.5V4931.45H284.841V4937.5H270.318V4978H263.318V4937.5H248.818ZM300.831 4978.7C297.391 4978.7 294.429 4977.97 291.944 4976.5C289.475 4975.02 287.565 4972.93 286.217 4970.25C284.884 4967.55 284.217 4964.39 284.217 4960.77C284.217 4957.2 284.884 4954.05 286.217 4951.32C287.565 4948.59 289.444 4946.46 291.853 4944.93C294.278 4943.4 297.111 4942.64 300.353 4942.64C302.323 4942.64 304.232 4942.96 306.081 4943.61C307.929 4944.27 309.588 4945.29 311.058 4946.68C312.528 4948.08 313.687 4949.89 314.535 4952.11C315.384 4954.33 315.808 4957.02 315.808 4960.18V4962.59H288.058V4957.5H309.149C309.149 4955.71 308.785 4954.13 308.058 4952.75C307.331 4951.36 306.308 4950.26 304.99 4949.45C303.687 4948.65 302.156 4948.25 300.399 4948.25C298.49 4948.25 296.823 4948.72 295.399 4949.66C293.99 4950.58 292.899 4951.8 292.126 4953.3C291.369 4954.78 290.99 4956.39 290.99 4958.14V4962.11C290.99 4964.45 291.399 4966.43 292.217 4968.07C293.05 4969.7 294.209 4970.95 295.694 4971.82C297.179 4972.67 298.914 4973.09 300.899 4973.09C302.187 4973.09 303.361 4972.91 304.422 4972.55C305.482 4972.17 306.399 4971.61 307.172 4970.86C307.944 4970.12 308.535 4969.2 308.944 4968.11L315.376 4969.27C314.861 4971.17 313.937 4972.83 312.603 4974.25C311.285 4975.66 309.626 4976.76 307.626 4977.55C305.641 4978.32 303.376 4978.7 300.831 4978.7ZM348.099 4951.61L341.94 4952.7C341.682 4951.92 341.273 4951.17 340.712 4950.45C340.167 4949.74 339.425 4949.16 338.485 4948.7C337.546 4948.25 336.371 4948.02 334.962 4948.02C333.038 4948.02 331.432 4948.45 330.144 4949.32C328.856 4950.17 328.212 4951.27 328.212 4952.61C328.212 4953.78 328.644 4954.72 329.508 4955.43C330.371 4956.14 331.765 4956.73 333.69 4957.18L339.235 4958.45C342.447 4959.2 344.841 4960.34 346.417 4961.89C347.993 4963.43 348.781 4965.44 348.781 4967.91C348.781 4970 348.175 4971.86 346.962 4973.5C345.765 4975.12 344.091 4976.39 341.94 4977.32C339.803 4978.24 337.326 4978.7 334.508 4978.7C330.599 4978.7 327.409 4977.87 324.94 4976.2C322.47 4974.52 320.955 4972.14 320.394 4969.05L326.962 4968.05C327.371 4969.76 328.212 4971.05 329.485 4971.93C330.758 4972.8 332.417 4973.23 334.462 4973.23C336.69 4973.23 338.47 4972.77 339.803 4971.84C341.137 4970.9 341.803 4969.76 341.803 4968.41C341.803 4967.32 341.394 4966.4 340.576 4965.66C339.773 4964.92 338.538 4964.36 336.871 4963.98L330.962 4962.68C327.705 4961.94 325.296 4960.76 323.735 4959.14C322.19 4957.52 321.417 4955.46 321.417 4952.98C321.417 4950.92 321.993 4949.11 323.144 4947.57C324.296 4946.02 325.887 4944.82 327.917 4943.95C329.947 4943.08 332.273 4942.64 334.894 4942.64C338.667 4942.64 341.637 4943.45 343.803 4945.09C345.97 4946.71 347.402 4948.89 348.099 4951.61ZM371.14 4943.09V4948.55H352.071V4943.09H371.14ZM357.185 4934.73H363.981V4967.75C363.981 4969.07 364.178 4970.06 364.571 4970.73C364.965 4971.38 365.473 4971.83 366.094 4972.07C366.731 4972.3 367.42 4972.41 368.162 4972.41C368.708 4972.41 369.185 4972.37 369.594 4972.3C370.003 4972.22 370.321 4972.16 370.549 4972.11L371.776 4977.73C371.382 4977.88 370.821 4978.03 370.094 4978.18C369.367 4978.35 368.458 4978.44 367.367 4978.45C365.579 4978.48 363.912 4978.17 362.367 4977.5C360.821 4976.83 359.571 4975.8 358.617 4974.41C357.662 4973.02 357.185 4971.27 357.185 4969.16V4934.73ZM391.919 4978.7C388.48 4978.7 385.518 4977.97 383.033 4976.5C380.563 4975.02 378.654 4972.93 377.305 4970.25C375.972 4967.55 375.305 4964.39 375.305 4960.77C375.305 4957.2 375.972 4954.05 377.305 4951.32C378.654 4948.59 380.533 4946.46 382.942 4944.93C385.366 4943.4 388.199 4942.64 391.442 4942.64C393.412 4942.64 395.321 4942.96 397.169 4943.61C399.018 4944.27 400.677 4945.29 402.146 4946.68C403.616 4948.08 404.775 4949.89 405.624 4952.11C406.472 4954.33 406.896 4957.02 406.896 4960.18V4962.59H379.146V4957.5H400.237C400.237 4955.71 399.874 4954.13 399.146 4952.75C398.419 4951.36 397.396 4950.26 396.078 4949.45C394.775 4948.65 393.245 4948.25 391.487 4948.25C389.578 4948.25 387.912 4948.72 386.487 4949.66C385.078 4950.58 383.987 4951.8 383.215 4953.3C382.457 4954.78 382.078 4956.39 382.078 4958.14V4962.11C382.078 4964.45 382.487 4966.43 383.305 4968.07C384.139 4969.7 385.298 4970.95 386.783 4971.82C388.268 4972.67 390.002 4973.09 391.987 4973.09C393.275 4973.09 394.449 4972.91 395.51 4972.55C396.571 4972.17 397.487 4971.61 398.26 4970.86C399.033 4970.12 399.624 4969.2 400.033 4968.11L406.465 4969.27C405.949 4971.17 405.025 4972.83 403.692 4974.25C402.374 4975.66 400.715 4976.76 398.715 4977.55C396.73 4978.32 394.465 4978.7 391.919 4978.7ZM413.028 4978V4943.09H419.551V4948.77H419.983C420.71 4946.85 421.899 4945.35 423.551 4944.27C425.202 4943.18 427.18 4942.64 429.483 4942.64C431.816 4942.64 433.771 4943.18 435.346 4944.27C436.937 4945.36 438.112 4946.86 438.869 4948.77H439.233C440.066 4946.91 441.392 4945.42 443.21 4944.32C445.028 4943.2 447.195 4942.64 449.71 4942.64C452.877 4942.64 455.46 4943.63 457.46 4945.61C459.475 4947.6 460.483 4950.59 460.483 4954.59V4978H453.687V4955.23C453.687 4952.86 453.043 4951.15 451.755 4950.09C450.468 4949.03 448.93 4948.5 447.142 4948.5C444.93 4948.5 443.21 4949.18 441.983 4950.55C440.755 4951.89 440.142 4953.63 440.142 4955.75V4978H433.369V4954.8C433.369 4952.9 432.778 4951.38 431.596 4950.23C430.415 4949.08 428.877 4948.5 426.983 4948.5C425.695 4948.5 424.505 4948.84 423.415 4949.52C422.339 4950.19 421.468 4951.12 420.801 4952.32C420.149 4953.52 419.824 4954.9 419.824 4956.48V4978H413.028ZM482.887 4978.7C479.615 4978.7 476.758 4977.95 474.319 4976.45C471.88 4974.95 469.986 4972.86 468.637 4970.16C467.289 4967.46 466.615 4964.31 466.615 4960.7C466.615 4957.08 467.289 4953.92 468.637 4951.2C469.986 4948.49 471.88 4946.39 474.319 4944.89C476.758 4943.39 479.615 4942.64 482.887 4942.64C486.16 4942.64 489.016 4943.39 491.455 4944.89C493.895 4946.39 495.789 4948.49 497.137 4951.2C498.486 4953.92 499.16 4957.08 499.16 4960.7C499.16 4964.31 498.486 4967.46 497.137 4970.16C495.789 4972.86 493.895 4974.95 491.455 4976.45C489.016 4977.95 486.16 4978.7 482.887 4978.7ZM482.91 4973C485.031 4973 486.789 4972.44 488.183 4971.32C489.577 4970.2 490.607 4968.7 491.274 4966.84C491.955 4964.98 492.296 4962.92 492.296 4960.68C492.296 4958.45 491.955 4956.41 491.274 4954.55C490.607 4952.67 489.577 4951.16 488.183 4950.02C486.789 4948.89 485.031 4948.32 482.91 4948.32C480.774 4948.32 479.001 4948.89 477.592 4950.02C476.198 4951.16 475.16 4952.67 474.478 4954.55C473.811 4956.41 473.478 4958.45 473.478 4960.68C473.478 4962.92 473.811 4964.98 474.478 4966.84C475.16 4968.7 476.198 4970.2 477.592 4971.32C479.001 4972.44 480.774 4973 482.91 4973ZM512.133 4957.27V4978H505.337V4943.09H511.86V4948.77H512.292C513.095 4946.92 514.352 4945.44 516.064 4944.32C517.792 4943.2 519.966 4942.64 522.587 4942.64C524.966 4942.64 527.049 4943.14 528.837 4944.14C530.625 4945.12 532.011 4946.59 532.996 4948.55C533.981 4950.5 534.474 4952.92 534.474 4955.8V4978H527.678V4956.61C527.678 4954.08 527.019 4952.11 525.701 4950.68C524.383 4949.24 522.572 4948.52 520.269 4948.52C518.693 4948.52 517.292 4948.86 516.064 4949.55C514.852 4950.23 513.89 4951.23 513.178 4952.55C512.481 4953.85 512.133 4955.42 512.133 4957.27ZM542.179 4978V4943.09H548.975V4978H542.179ZM545.611 4937.7C544.429 4937.7 543.414 4937.31 542.566 4936.52C541.732 4935.72 541.316 4934.77 541.316 4933.66C541.316 4932.54 541.732 4931.58 542.566 4930.8C543.414 4929.99 544.429 4929.59 545.611 4929.59C546.793 4929.59 547.8 4929.99 548.634 4930.8C549.482 4931.58 549.906 4932.54 549.906 4933.66C549.906 4934.77 549.482 4935.72 548.634 4936.52C547.8 4937.31 546.793 4937.7 545.611 4937.7ZM566.868 4978.77C564.656 4978.77 562.656 4978.36 560.868 4977.55C559.08 4976.71 557.663 4975.51 556.618 4973.93C555.587 4972.36 555.072 4970.42 555.072 4968.14C555.072 4966.17 555.451 4964.55 556.209 4963.27C556.966 4962 557.989 4960.99 559.277 4960.25C560.565 4959.51 562.004 4958.95 563.595 4958.57C565.186 4958.19 566.807 4957.9 568.459 4957.7C570.55 4957.46 572.247 4957.27 573.55 4957.11C574.853 4956.95 575.8 4956.68 576.391 4956.32C576.981 4955.95 577.277 4955.36 577.277 4954.55V4954.39C577.277 4952.4 576.716 4950.86 575.595 4949.77C574.489 4948.68 572.837 4948.14 570.641 4948.14C568.353 4948.14 566.55 4948.64 565.231 4949.66C563.928 4950.66 563.027 4951.77 562.527 4953L556.141 4951.55C556.898 4949.42 558.004 4947.71 559.459 4946.41C560.928 4945.09 562.618 4944.14 564.527 4943.55C566.436 4942.94 568.444 4942.64 570.55 4942.64C571.944 4942.64 573.421 4942.8 574.981 4943.14C576.557 4943.45 578.027 4944.05 579.391 4944.91C580.769 4945.77 581.898 4947.01 582.777 4948.61C583.656 4950.2 584.095 4952.27 584.095 4954.82V4978H577.459V4973.23H577.186C576.747 4974.11 576.087 4974.97 575.209 4975.82C574.33 4976.67 573.201 4977.37 571.822 4977.93C570.444 4978.49 568.792 4978.77 566.868 4978.77ZM568.345 4973.32C570.224 4973.32 571.83 4972.95 573.163 4972.2C574.512 4971.46 575.534 4970.49 576.231 4969.3C576.944 4968.08 577.3 4966.79 577.3 4965.41V4960.91C577.057 4961.15 576.587 4961.38 575.891 4961.59C575.209 4961.79 574.428 4961.96 573.55 4962.11C572.671 4962.25 571.815 4962.38 570.981 4962.5C570.148 4962.61 569.451 4962.7 568.891 4962.77C567.572 4962.94 566.368 4963.22 565.277 4963.61C564.201 4964.01 563.337 4964.58 562.686 4965.32C562.05 4966.05 561.731 4967.02 561.731 4968.23C561.731 4969.91 562.353 4971.18 563.595 4972.05C564.837 4972.89 566.421 4973.32 568.345 4973.32ZM598.534 4931.45V4978H591.738V4931.45H598.534ZM632.427 4951.61L626.268 4952.7C626.01 4951.92 625.601 4951.17 625.04 4950.45C624.495 4949.74 623.753 4949.16 622.813 4948.7C621.874 4948.25 620.699 4948.02 619.29 4948.02C617.366 4948.02 615.76 4948.45 614.472 4949.32C613.184 4950.17 612.54 4951.27 612.54 4952.61C612.54 4953.78 612.972 4954.72 613.836 4955.43C614.699 4956.14 616.093 4956.73 618.018 4957.18L623.563 4958.45C626.775 4959.2 629.169 4960.34 630.745 4961.89C632.321 4963.43 633.109 4965.44 633.109 4967.91C633.109 4970 632.503 4971.86 631.29 4973.5C630.093 4975.12 628.419 4976.39 626.268 4977.32C624.131 4978.24 621.654 4978.7 618.836 4978.7C614.927 4978.7 611.737 4977.87 609.268 4976.2C606.798 4974.52 605.283 4972.14 604.722 4969.05L611.29 4968.05C611.699 4969.76 612.54 4971.05 613.813 4971.93C615.086 4972.8 616.745 4973.23 618.79 4973.23C621.018 4973.23 622.798 4972.77 624.131 4971.84C625.465 4970.9 626.131 4969.76 626.131 4968.41C626.131 4967.32 625.722 4966.4 624.904 4965.66C624.101 4964.92 622.866 4964.36 621.199 4963.98L615.29 4962.68C612.033 4961.94 609.624 4960.76 608.063 4959.14C606.518 4957.52 605.745 4955.46 605.745 4952.98C605.745 4950.92 606.321 4949.11 607.472 4947.57C608.624 4946.02 610.215 4944.82 612.245 4943.95C614.275 4943.08 616.601 4942.64 619.222 4942.64C622.995 4942.64 625.965 4943.45 628.131 4945.09C630.298 4946.71 631.73 4948.89 632.427 4951.61Z" fill="black"/>
<ellipse cx="289" cy="2212" rx="117" ry="100" fill="#D9D9D9"/>
<ellipse cx="676" cy="2212" rx="120" ry="100" fill="#D9D9D9"/>
<ellipse cx="1019" cy="2212" rx="120" ry="100" fill="#D9D9D9"/>
<rect x="172" y="2422" width="280" height="70" fill="#D9D9D9"/>
<rect x="524" y="2435" width="280" height="70" fill="#D9D9D9"/>
<rect x="859" y="2422" width="280" height="70" fill="#D9D9D9"/>
<path d="M406.591 5546H404.273C403.841 5543.68 403 5541.32 401.75 5538.91C400.5 5536.5 398.841 5534.27 396.773 5532.23C394.705 5530.18 392.261 5528.53 389.443 5527.28C386.625 5526.03 383.432 5525.41 379.864 5525.41C375.091 5525.41 370.67 5526.72 366.602 5529.33C362.557 5531.92 359.295 5535.73 356.818 5540.75C354.364 5545.75 353.136 5551.86 353.136 5559.09C353.136 5566.41 354.364 5572.57 356.818 5577.57C359.295 5582.57 362.557 5586.35 366.602 5588.92C370.67 5591.49 375.091 5592.77 379.864 5592.77C383.432 5592.77 386.625 5592.16 389.443 5590.93C392.261 5589.68 394.705 5588.05 396.773 5586.02C398.841 5583.98 400.5 5581.75 401.75 5579.34C403 5576.91 403.841 5574.52 404.273 5572.18H406.591C406.159 5574.64 405.295 5577.19 404 5579.85C402.705 5582.49 400.955 5584.95 398.75 5587.25C396.545 5589.55 393.875 5591.41 390.739 5592.84C387.602 5594.25 383.977 5594.95 379.864 5594.95C374.136 5594.95 369.102 5593.45 364.761 5590.45C360.42 5587.45 357.034 5583.26 354.602 5577.88C352.17 5572.49 350.955 5566.23 350.955 5559.09C350.955 5551.95 352.17 5545.69 354.602 5540.31C357.034 5534.92 360.42 5530.73 364.761 5527.73C369.102 5524.73 374.136 5523.23 379.864 5523.23C383.977 5523.23 387.602 5523.93 390.739 5525.34C393.875 5526.75 396.545 5528.6 398.75 5530.9C400.955 5533.17 402.705 5535.64 404 5538.3C405.295 5540.93 406.159 5543.5 406.591 5546ZM438.985 5595.09C434.872 5595.09 431.178 5593.91 427.906 5591.55C424.633 5589.16 422.042 5585.92 420.133 5581.83C418.247 5577.72 417.303 5573.09 417.303 5567.95C417.303 5562.8 418.247 5558.17 420.133 5554.08C422.042 5549.99 424.633 5546.76 427.906 5544.4C431.178 5542.01 434.872 5540.82 438.985 5540.82C443.099 5540.82 446.781 5542.01 450.031 5544.4C453.303 5546.78 455.894 5550.02 457.803 5554.11C459.712 5558.2 460.667 5562.82 460.667 5567.95C460.667 5573.09 459.712 5577.72 457.803 5581.83C455.917 5585.92 453.337 5589.16 450.065 5591.55C446.792 5593.91 443.099 5595.09 438.985 5595.09ZM438.985 5592.91C442.69 5592.91 446.008 5591.82 448.94 5589.64C451.894 5587.45 454.224 5584.48 455.928 5580.7C457.633 5576.93 458.485 5572.68 458.485 5567.95C458.485 5563.23 457.622 5558.99 455.894 5555.24C454.19 5551.47 451.872 5548.49 448.94 5546.31C446.008 5544.1 442.69 5543 438.985 5543C435.303 5543 431.985 5544.1 429.031 5546.31C426.099 5548.49 423.769 5551.47 422.042 5555.24C420.337 5558.99 419.485 5563.23 419.485 5567.95C419.485 5572.68 420.337 5576.93 422.042 5580.7C423.747 5584.48 426.065 5587.45 428.997 5589.64C431.951 5591.82 435.281 5592.91 438.985 5592.91ZM473.825 5613.64V5541.64H476.007V5555H476.28C477.235 5552.09 478.564 5549.58 480.269 5547.47C481.973 5545.35 483.985 5543.72 486.303 5542.56C488.644 5541.4 491.212 5540.82 494.007 5540.82C498.144 5540.82 501.712 5542.01 504.712 5544.4C507.735 5546.76 510.064 5549.99 511.7 5554.08C513.36 5558.17 514.189 5562.8 514.189 5567.95C514.189 5573.09 513.36 5577.7 511.7 5581.8C510.041 5585.89 507.7 5589.12 504.678 5591.51C501.655 5593.9 498.098 5595.09 494.007 5595.09C491.235 5595.09 488.678 5594.52 486.337 5593.39C483.996 5592.23 481.962 5590.59 480.235 5588.48C478.507 5586.34 477.189 5583.82 476.28 5580.91H476.007V5613.64H473.825ZM476.007 5567.95C476.007 5572.68 476.735 5576.93 478.189 5580.7C479.666 5584.45 481.746 5587.43 484.428 5589.64C487.132 5591.82 490.325 5592.91 494.007 5592.91C497.689 5592.91 500.871 5591.82 503.553 5589.64C506.257 5587.43 508.337 5584.45 509.791 5580.7C511.269 5576.93 512.007 5572.68 512.007 5567.95C512.007 5563.23 511.28 5558.99 509.825 5555.24C508.371 5551.47 506.291 5548.49 503.587 5546.31C500.905 5544.1 497.712 5543 494.007 5543C490.303 5543 487.098 5544.1 484.394 5546.31C481.712 5548.49 479.644 5551.47 478.189 5555.24C476.735 5558.99 476.007 5563.23 476.007 5567.95ZM527.91 5613.64C527.024 5613.64 526.081 5613.51 525.081 5613.26C524.081 5613.03 523.069 5612.7 522.046 5612.27L522.865 5610.36C525.115 5611.32 527.16 5611.66 529.001 5611.39C530.865 5611.14 532.501 5610.28 533.91 5608.83C535.342 5607.38 536.524 5605.34 537.456 5602.73L540.251 5594.95L521.16 5541.64H523.478L541.206 5591.27H541.478L559.206 5541.64H561.524L539.501 5603.55C538.728 5605.73 537.762 5607.57 536.603 5609.07C535.444 5610.57 534.126 5611.7 532.649 5612.48C531.194 5613.25 529.615 5613.64 527.91 5613.64ZM573.472 5594V5541.64H575.654V5549.95H575.927C577.154 5547.23 579.165 5545.05 581.961 5543.41C584.779 5541.77 587.995 5540.95 591.608 5540.95C591.881 5540.95 592.063 5540.95 592.154 5540.95C592.245 5540.95 592.427 5540.95 592.699 5540.95V5543.14C592.427 5543.14 592.245 5543.14 592.154 5543.14C592.063 5543.14 591.881 5543.14 591.608 5543.14C588.517 5543.14 585.767 5543.81 583.358 5545.15C580.972 5546.49 579.086 5548.34 577.699 5550.7C576.336 5553.07 575.654 5555.77 575.654 5558.82V5594H573.472ZM602.755 5594V5541.64H604.937V5594H602.755ZM603.846 5532.09C603.255 5532.09 602.744 5531.87 602.312 5531.44C601.88 5531.01 601.665 5530.5 601.665 5529.91C601.665 5529.32 601.88 5528.81 602.312 5528.38C602.744 5527.94 603.255 5527.73 603.846 5527.73C604.437 5527.73 604.949 5527.94 605.38 5528.38C605.812 5528.81 606.028 5529.32 606.028 5529.91C606.028 5530.5 605.812 5531.01 605.38 5531.44C604.949 5531.87 604.437 5532.09 603.846 5532.09ZM639.283 5614.73C636.351 5614.73 633.647 5614.33 631.17 5613.53C628.692 5612.76 626.556 5611.59 624.761 5610.02C622.965 5608.48 621.624 5606.55 620.738 5604.23L622.783 5603.41C623.579 5605.45 624.761 5607.15 626.329 5608.49C627.92 5609.85 629.817 5610.86 632.022 5611.52C634.249 5612.2 636.67 5612.55 639.283 5612.55C644.738 5612.55 648.988 5611.1 652.033 5608.22C655.079 5605.35 656.601 5600.98 656.601 5595.09V5580.91H656.329C655.42 5583.82 654.067 5586.25 652.272 5588.2C650.476 5590.14 648.397 5591.59 646.033 5592.57C643.67 5593.52 641.192 5594 638.601 5594C634.511 5594 630.954 5592.9 627.931 5590.69C624.908 5588.49 622.567 5585.43 620.908 5581.52C619.249 5577.61 618.42 5573.09 618.42 5567.95C618.42 5562.77 619.238 5558.14 620.874 5554.05C622.511 5549.95 624.84 5546.73 627.863 5544.36C630.886 5542 634.465 5540.82 638.601 5540.82C641.42 5540.82 643.988 5541.4 646.306 5542.56C648.624 5543.69 650.636 5545.33 652.34 5547.47C654.045 5549.58 655.374 5552.09 656.329 5555H656.601V5541.64H658.783V5595.09C658.783 5599.39 657.999 5602.99 656.431 5605.9C654.863 5608.83 652.624 5611.03 649.715 5612.51C646.806 5613.99 643.329 5614.73 639.283 5614.73ZM638.601 5591.82C642.238 5591.82 645.397 5590.85 648.079 5588.92C650.783 5586.99 652.874 5584.24 654.351 5580.67C655.851 5577.08 656.601 5572.84 656.601 5567.95C656.601 5563.23 655.874 5558.99 654.42 5555.24C652.965 5551.47 650.886 5548.49 648.181 5546.31C645.499 5544.1 642.306 5543 638.601 5543C634.897 5543 631.692 5544.1 628.988 5546.31C626.306 5548.49 624.238 5551.47 622.783 5555.24C621.329 5558.99 620.601 5563.23 620.601 5567.95C620.601 5572.68 621.329 5576.84 622.783 5580.43C624.261 5584 626.34 5586.8 629.022 5588.82C631.726 5590.82 634.92 5591.82 638.601 5591.82ZM677.592 5558.82V5594H675.41V5524.18H677.592V5549.95H677.865C679.092 5547.23 681.104 5545.05 683.899 5543.41C686.717 5541.77 689.933 5540.95 693.547 5540.95C697.047 5540.95 700.138 5541.72 702.82 5543.24C705.501 5544.76 707.604 5546.86 709.126 5549.55C710.649 5552.23 711.41 5555.32 711.41 5558.82V5594H709.229V5558.82C709.229 5554.18 707.774 5550.41 704.865 5547.5C701.956 5544.59 698.183 5543.14 693.547 5543.14C690.456 5543.14 687.706 5543.81 685.297 5545.15C682.91 5546.49 681.024 5548.34 679.638 5550.7C678.274 5553.07 677.592 5555.77 677.592 5558.82ZM744.129 5541.64V5543.82H723.401V5541.64H744.129ZM731.038 5529.09H733.22V5582.95C733.22 5585 733.674 5586.76 734.583 5588.24C735.492 5589.69 736.697 5590.82 738.197 5591.61C739.697 5592.39 741.31 5592.77 743.038 5592.77C743.697 5592.77 744.299 5592.72 744.845 5592.6C745.413 5592.49 745.992 5592.32 746.583 5592.09L747.265 5594.14C746.583 5594.39 745.913 5594.58 745.254 5594.72C744.595 5594.88 743.856 5594.95 743.038 5594.95C740.901 5594.95 738.913 5594.47 737.072 5593.49C735.254 5592.51 733.788 5591.12 732.674 5589.33C731.583 5587.53 731.038 5585.41 731.038 5582.95V5529.09Z" fill="black"/>
<rect x="1126" y="4" width="85" height="96" fill="#D9D9D9"/>
</svg>
